Coordinates
version=1
nRows=17
nColumns=40
inDegrees=yes

Units are S.I. units (second, meters, Newtons, ...)
Angles are in degrees.

endheader
time	pelvis_tilt	pelvis_list	pelvis_rotation	pelvis_tx	pelvis_ty	pelvis_tz	hip_flexion_r	hip_adduction_r	hip_rotation_r	knee_angle_r	knee_angle_r_beta	ankle_angle_r	subtalar_angle_r	mtp_angle_r	hip_flexion_l	hip_adduction_l	hip_rotation_l	knee_angle_l	knee_angle_l_beta	ankle_angle_l	subtalar_angle_l	mtp_angle_l	lumbar_extension	lumbar_bending	lumbar_rotation	arm_flex_r	arm_add_r	arm_rot_r	elbow_flex_r	pro_sup_r	wrist_flex_r	wrist_dev_r	arm_flex_l	arm_add_l	arm_rot_l	elbow_flex_l	pro_sup_l	wrist_flex_l	wrist_dev_l
     38.72750000	     -3.59003120	     -4.73900582	     -3.50519136	      1.11317605	      0.92808528	      0.45866619	     17.42191012	      1.53878671	    -10.33602188	     18.70504971	     18.70504971	      6.61979082	     -0.33104005	     -3.53528681	      6.77375248	    -11.69246343	    -11.45397831	     34.20312253	     34.20312253	     14.34958638	    -14.63146839	     -4.31546875	     -9.23876363	      6.34507523	      0.73106938	      2.45373294	    -14.21620160	     -2.31090543	     35.87306234	     45.92354432	      0.00000000	      0.00000000	     11.01386655	    -14.25763166	    -13.03724872	     44.62580853	     47.33692785	      0.00000000	      0.00000000
     38.74057143	     -3.40612569	     -4.85523770	     -3.18274217	      1.11377073	      0.92845380	      0.46144858	     16.79422693	      1.73405446	    -10.78908725	     18.73729933	     18.73729933	      7.08301233	     -0.09886685	     -3.52982333	      8.46489126	    -12.43682762	    -10.30742157	     37.99960234	     37.99960234	     12.12179591	    -16.18742098	     -6.24171660	     -9.27186255	      6.44162039	      0.88703805	      3.32750737	    -14.76153832	     -1.05109685	     38.11552245	     45.75996402	      0.00000000	      0.00000000	     11.01526542	    -13.56786700	    -13.58161605	     41.55510349	     47.31731324	      0.00000000	      0.00000000
     38.75364286	     -3.20106548	     -5.04673140	     -2.81784076	      1.11417978	      0.92871981	      0.46417433	     16.10666895	      2.02806955	    -11.21865361	     18.68821370	     18.68821370	      7.43343359	      0.00157558	     -3.63522426	     10.35810236	    -13.24270683	     -9.03848345	     42.09031010	     42.09031010	     10.51426366	    -17.03089692	     -6.33949139	     -9.34958401	      6.54919277	      0.88335254	      4.75045732	    -14.92400410	     -1.09018265	     39.02893074	     45.73580924	      0.00000000	      0.00000000	     10.05323266	    -13.11394033	    -13.42621405	     40.63197644	     47.27444045	      0.00000000	      0.00000000
     38.76671429	     -3.07808369	     -5.14681712	     -2.43087676	      1.11426623	      0.92876485	      0.46658594	     15.59138203	      2.19680222	    -11.65842350	     18.74329798	     18.74329798	      7.82793346	      0.10405669	     -3.77438991	     12.46348338	    -13.83101692	     -7.65186521	     46.16426924	     46.16426924	      8.94162709	    -17.67583012	     -5.72647772	     -9.38064079	      6.64128858	      0.63035225	      6.28127705	    -15.06172573	     -0.93933040	     40.55542607	     45.67772776	      0.00000000	      0.00000000	      9.22787462	    -12.84342317	    -13.16020246	     39.07064759	     47.21226293	      0.00000000	      0.00000000
     38.77978571	     -2.88532113	     -5.25949096	     -2.02998245	      1.11418286	      0.92881841	      0.46876099	     15.03918777	      2.35588836	    -12.11321373	     18.86042755	     18.86042755	      8.27753971	      0.24736219	     -3.81864652	     14.63097956	    -14.23281386	     -6.03988419	     50.29808953	     50.29808953	      8.51978988	    -17.77110501	     -1.97174048	     -9.50629115	      6.73816492	      1.11257695	      6.91476312	    -15.90315480	      0.15131181	     43.43049827	     45.51580728	      0.00000000	      0.00000000	      9.30283619	    -12.30038290	    -12.30450467	     36.43164102	     47.05721837	      0.00000000	      0.00000000
     38.79285714	     -2.64456253	     -5.42245263	     -1.64321237	      1.11395169	      0.92891455	      0.47087672	     14.42769757	      2.60142343	    -12.45282082	     18.92234520	     18.92234520	      8.61036526	      0.20157972	     -3.90911684	     16.54138459	    -14.69984758	     -4.70783956	     53.74600401	     53.74600401	      6.86227889	    -18.11512663	     -1.59599827	     -9.72428576	      6.84200047	      1.32730800	      8.50197922	    -16.21185796	      0.00331180	     44.33661514	     45.49948810	      0.00000000	      0.00000000	      8.52642419	    -11.81720390	    -12.10990935	     35.81153617	     47.01518253	      0.00000000	      0.00000000
     38.80592857	     -2.63274569	     -5.55535162	     -1.20435725	      1.11347600	      0.92866015	      0.47276299	     14.08695499	      2.81172417	    -12.77696275	     18.99237530	     18.99237530	      9.00407308	      0.09148628	     -3.99800602	     18.73686688	    -14.98619812	     -3.27802854	     56.90051011	     56.90051011	      5.64994218	    -18.29535654	     -0.48067614	     -9.64168529	      6.91849238	      1.06952715	     10.07906888	    -16.34158818	     -0.07429056	     45.79566368	     45.45879335	      0.00000000	      0.00000000	      7.52985807	    -11.51357428	    -11.79368039	     34.77404550	     46.95200784	      0.00000000	      0.00000000
     38.81900000	     -2.54683464	     -5.44365087	     -0.81707181	      1.11271021	      0.92869350	      0.47423613	     13.74776914	      2.72351793	    -13.01664009	     19.17076673	     19.17076673	      9.45081573	      0.03409514	     -3.86624016	     20.87549740	    -14.73502893	     -1.84093155	     59.86755771	     59.86755771	      6.58079711	    -18.04207711	      5.90434618	     -9.73947337	      6.78654209	      1.41209298	     10.77021758	    -17.22284780	      0.78094916	     49.44623308	     45.29618653	      0.00000000	      0.00000000	      7.27592928	    -11.19785150	    -10.28490677	     32.92204983	     46.72002434	      0.00000000	      0.00000000
     38.83207143	     -2.45209206	     -5.44425818	     -0.42069905	      1.11188874	      0.92877720	      0.47573429	     13.33837111	      2.79520300	    -13.19991112	     19.21257226	     19.21257226	      9.81755049	     -0.13605310	     -3.79535465	     22.70881843	    -14.76666103	     -0.85033361	     61.91788432	     61.91788432	      6.30133168	    -17.99603887	      7.78261603	     -9.85449297	      6.72867849	      1.50844213	     12.15671040	    -17.62515194	      0.73912172	     51.60124197	     45.24052280	      0.00000000	      0.00000000	      6.49134694	    -10.93421141	     -9.11418380	     32.12177430	     46.52955635	      0.00000000	      0.00000000
     38.84514286	     -2.37691865	     -5.44350979	     -0.03226516	      1.11095655	      0.92901508	      0.47710005	     12.89505572	      2.87406765	    -13.40474802	     19.12472759	     19.12472759	     10.07445004	     -0.25632973	     -3.81806675	     24.35641709	    -14.81322680	     -0.10979311	     63.22256498	     63.22256498	      5.73717472	    -18.15396035	      7.97573346	     -9.94201869	      6.64665953	      1.72729417	     13.83389668	    -17.94871533	      0.49727949	     52.58562083	     45.22633290	      0.00000000	      0.00000000	      5.71633843	    -10.47195673	     -8.89408126	     31.67168124	     46.48419809	      0.00000000	      0.00000000
     38.85821429	     -2.40827407	     -5.35986212	      0.40952519	      1.10980615	      0.92922543	      0.47817437	     12.54230693	      2.87154558	    -13.54468121	     18.95864560	     18.95864560	     10.34475059	     -0.50387783	     -3.73452054	     26.08744966	    -14.68141400	      0.53700889	     64.05870372	     64.05870372	      6.25985893	    -18.14896011	     10.29528194	     -9.97851000	      6.52017308	      1.70237952	     14.89204875	    -18.43519235	      0.67114022	     55.90494566	     45.12450024	      0.00000000	      0.00000000	      4.75001332	    -10.31685598	     -7.44775809	     31.21670472	     46.25632192	      0.00000000	      0.00000000
     38.87128571	     -2.38690304	     -5.20271299	      0.79302059	      1.10864289	      0.92968823	      0.47917586	     12.10149648	      2.78805792	    -13.67998972	     18.74154525	     18.74154525	     10.57233864	     -0.61203659	     -3.73468415	     27.44555544	    -14.60119075	      0.72864357	     64.01676822	     64.01676822	      6.28147675	    -18.27170921	     10.30082117	    -10.04440627	      6.25078556	      2.11251486	     16.52638672	    -18.87671612	      0.39276638	     56.64359389	     45.11937469	      0.00000000	      0.00000000	      4.10311587	     -9.80773823	     -7.29696313	     30.92502515	     46.22339760	      0.00000000	      0.00000000
     38.88435714	     -2.44666303	     -5.21060260	      1.31725314	      1.10733912	      0.93011184	      0.47995192	     11.60805893	      2.91194954	    -13.92394291	     18.21671798	     18.21671798	     10.67237439	     -0.78794117	     -3.64071741	     28.85533773	    -14.59281576	      1.01142592	     63.39981703	     63.39981703	      6.59084956	    -18.47008962	     10.72670283	    -10.03790622	      6.24355959	      1.41586786	     18.40926205	    -18.60168307	      0.11058297	     58.82322760	     45.06799775	      0.00000000	      0.00000000	      2.88562658	     -9.63674401	     -6.85975915	     30.32654486	     46.13998804	      0.00000000	      0.00000000
     38.89742857	     -2.52076970	     -5.08006793	      1.75807789	      1.10596104	      0.93059872	      0.48058718	     11.18372656	      2.87035985	    -14.07800671	     17.80013245	     17.80013245	     10.78734815	     -0.91280709	     -3.60318916	     30.00768733	    -14.48649540	      0.91600296	     62.07025694	     62.07025694	      7.07622733	    -18.63678168	     11.01387663	    -10.05717560	      6.03245518	      1.54987599	     19.99599393	    -18.91174850	     -0.14199400	     60.19360210	     45.04085854	      0.00000000	      0.00000000	      2.09722785	     -9.25547388	     -6.58976833	     30.11976117	     46.08661031	      0.00000000	      0.00000000
     38.91050000	     -2.53604532	     -4.97179523	      2.27389372	      1.10456662	      0.93122221	      0.48097527	     10.56139992	      2.87684794	    -14.28353304	     17.11625684	     17.11625684	     10.83207685	     -1.04520538	     -3.57630251	     30.92879654	    -14.31172023	      0.81383226	     60.13660367	     60.13660367	      7.74303907	    -18.72046519	     11.60333016	    -10.15253130	      5.90905746	      1.24951204	     21.54151621	    -18.93535767	     -0.39206993	     62.60156157	     44.98043129	      0.00000000	      0.00000000	      1.01921345	     -9.00752703	     -6.10320036	     30.01054416	     45.99603374	      0.00000000	      0.00000000
     38.92357143	     -2.64642523	     -4.89093460	      2.77753345	      1.10307871	      0.93160199	      0.48120466	     10.08738565	      2.88976277	    -14.52697529	     16.50637882	     16.50637882	     10.81033593	     -1.17271570	     -3.78848716	     31.79661155	    -14.12682571	      0.59045527	     57.70625164	     57.70625164	      8.49108626	    -18.72493194	     12.34229540	    -10.18122658	      5.80798390	      1.39613045	     22.65288188	    -19.42636866	     -0.76737305	     65.42463610	     44.91629801	      0.00000000	      0.00000000	      0.05492027	     -8.73459750	     -5.22305928	     30.45202534	     45.85008428	      0.00000000	      0.00000000
     38.93664286	     -2.73139735	     -4.70083964	      3.27161342	      1.10157681	      0.93207268	      0.48117061	      9.59263299	      2.76980133	    -14.74517118	     15.93073078	     15.93073078	     10.85151854	     -1.29470427	     -3.86166653	     32.32238296	    -13.71653362	      0.29402686	     54.64472276	     54.64472276	      9.07606467	    -18.73540860	     12.63236550	    -10.24549013	      5.59281149	      1.41429430	     24.07097775	    -19.64136327	     -1.17783088	     67.09356182	     44.88861598	      0.00000000	      0.00000000	     -0.73448155	     -8.45245399	     -4.70336052	     30.40208353	     45.76275792	      0.00000000	      0.00000000
